<?xml version="1.0" encoding="UTF-8"?>
<svg xmlns="http://www.w3.org/2000/svg" xmlns:xlink="http://www.w3.org/1999/xlink" version="1.1" id="Capa_1" x="0px" y="0px" viewBox="0 0 511 511" style="enable-background:new 0 0 511 511;" xml:space="preserve" width="512" height="512">
<g>
	<g>
		<path style="fill:#EEF5FF;" d="M347.246,503.5H59.978c-16.569,0-30-13.431-30-30V77.147h347.269V473.5&#10;&#9;&#9;&#9;C377.246,490.069,363.815,503.5,347.246,503.5z"/>
		<path style="fill:#DFE9FB;" d="M347.247,485.5H59.978c-16.569,0-30-13.432-30-30v18c0,16.568,13.431,30,30,30h287.269&#10;&#9;&#9;&#9;c16.568,0,30-13.432,30-30v-18C377.247,472.068,363.815,485.5,347.247,485.5z"/>
		<path style="fill:#FF7E92;" d="M377.246,77.147H29.978V37.5c0-16.569,13.431-30,30-30h287.269c16.569,0,30,13.431,30,30V77.147z"/>
		<rect x="29.978" y="59.147" style="fill:#FF5F7A;" width="347.269" height="18"/>
		<g>
			<g>
				<path style="fill:#BBF39B;" d="M125.196,194.254h-24.434c-8.284,0-15-6.716-15-15V154.82c0-8.284,6.716-15,15-15h24.434&#10;&#9;&#9;&#9;&#9;&#9;c8.284,0,15,6.716,15,15v24.434C140.195,187.538,133.48,194.254,125.196,194.254z"/>
			</g>
		</g>
		<path style="fill:#9AE59C;" d="M125.196,176.254h-24.435c-8.284,0-15-6.716-15-15v18c0,8.284,6.716,15,15,15h24.435&#10;&#9;&#9;&#9;c8.284,0,15-6.716,15-15v-18C140.196,169.538,133.48,176.254,125.196,176.254z"/>
		<g>
			<g>
				<path style="fill:#BBF39B;" d="M125.196,278.754h-24.434c-8.284,0-15-6.716-15-15V239.32c0-8.284,6.716-15,15-15h24.434&#10;&#9;&#9;&#9;&#9;&#9;c8.284,0,15,6.716,15,15v24.434C140.195,272.039,133.48,278.754,125.196,278.754z"/>
			</g>
		</g>
		<g>
			<g>
				<path style="fill:#BBF39B;" d="M125.196,363.255h-24.434c-8.284,0-15-6.716-15-15v-24.434c0-8.284,6.716-15,15-15h24.434&#10;&#9;&#9;&#9;&#9;&#9;c8.284,0,15,6.716,15,15v24.434C140.195,356.539,133.48,363.255,125.196,363.255z"/>
			</g>
		</g>
		<g>
			<g>
				<path style="fill:#BBF39B;" d="M125.196,447.755h-24.434c-8.284,0-15-6.716-15-15v-24.434c0-8.284,6.716-15,15-15h24.434&#10;&#9;&#9;&#9;&#9;&#9;c8.284,0,15,6.716,15,15v24.434C140.195,441.04,133.48,447.755,125.196,447.755z"/>
			</g>
		</g>
		<path style="fill:#9AE59C;" d="M125.196,260.754h-24.435c-8.284,0-15-6.716-15-15v18c0,8.284,6.716,15,15,15h24.435&#10;&#9;&#9;&#9;c8.284,0,15-6.716,15-15v-18C140.196,254.039,133.48,260.754,125.196,260.754z"/>
		<path style="fill:#9AE59C;" d="M125.196,345.255h-24.435c-8.284,0-15-6.716-15-15v18c0,8.284,6.716,15,15,15h24.435&#10;&#9;&#9;&#9;c8.284,0,15-6.716,15-15v-18C140.196,338.539,133.48,345.255,125.196,345.255z"/>
		<path style="fill:#9AE59C;" d="M125.196,429.755h-24.435c-8.284,0-15-6.716-15-15v18c0,8.284,6.716,15,15,15h24.435&#10;&#9;&#9;&#9;c8.284,0,15-6.716,15-15v-18C140.196,423.04,133.48,429.755,125.196,429.755z"/>
		<g>
			<rect x="417.249" y="102.321" style="fill:#FFE17D;" width="63.774" height="337.111"/>
			<rect x="417.249" y="65.276" style="fill:#6C5E69;" width="63.774" height="37.045"/>
			<rect x="417.249" y="84.321" style="fill:#574D56;" width="63.774" height="18"/>
			<path style="fill:#FF7E92;" d="M481.022,65.276h-63.774V22.5c0-8.284,6.716-15,15-15h33.774c8.284,0,15,6.716,15,15V65.276z"/>
			<rect x="417.249" y="47.276" style="fill:#FF5F7A;" width="63.774" height="18"/>
			<polygon style="fill:#FFDCD0;" points="449.136,503.5 417.249,439.431 481.022,439.431 &#9;&#9;&#9;"/>
			<polygon style="fill:#6C5E69;" points="459.833,482.006 438.438,482.006 449.136,503.5 &#9;&#9;&#9;"/>
		</g>
	</g>
	<g>
		<g>
			<path style="fill:none;stroke:#000000;stroke-width:15;stroke-linecap:round;stroke-linejoin:round;stroke-miterlimit:10;" d="&#10;&#9;&#9;&#9;&#9;M231.5,503.5H59.978c-16.569,0-30-13.431-30-30V77.147"/>
			<path style="fill:none;stroke:#000000;stroke-width:15;stroke-linecap:round;stroke-linejoin:round;stroke-miterlimit:10;" d="&#10;&#9;&#9;&#9;&#9;M377.246,77.147V473.5c0,16.569-13.431,30-30,30H261.5"/>
			<path style="fill:none;stroke:#000000;stroke-width:15;stroke-linecap:round;stroke-linejoin:round;stroke-miterlimit:10;" d="&#10;&#9;&#9;&#9;&#9;M308.326,7.5h38.92c16.569,0,30,13.431,30,30v39.647H128.195"/>
			<path style="fill:none;stroke:#000000;stroke-width:15;stroke-linecap:round;stroke-linejoin:round;stroke-miterlimit:10;" d="&#10;&#9;&#9;&#9;&#9;M98.196,77.147H29.978V37.5c0-16.569,13.431-30,30-30h218.349"/>
			<g>
				<path style="fill:none;stroke:#000000;stroke-width:15;stroke-linecap:round;stroke-linejoin:round;stroke-miterlimit:10;" d="&#10;&#9;&#9;&#9;&#9;&#9;M125.196,194.254h-24.434c-8.284,0-15-6.716-15-15V154.82c0-8.284,6.716-15,15-15h24.434c8.284,0,15,6.716,15,15v24.434&#10;&#9;&#9;&#9;&#9;&#9;C140.195,187.538,133.48,194.254,125.196,194.254z"/>
				
					<polyline style="fill:none;stroke:#000000;stroke-width:15;stroke-linecap:round;stroke-linejoin:round;stroke-miterlimit:10;" points="&#10;&#9;&#9;&#9;&#9;&#9;103.581,162.843 116.004,174.924 145.699,144.474 &#9;&#9;&#9;&#9;"/>
				
					<line style="fill:none;stroke:#000000;stroke-width:15;stroke-linecap:round;stroke-linejoin:round;stroke-miterlimit:10;" x1="183.201" y1="167.037" x2="321.463" y2="167.037"/>
			</g>
			<g>
				<path style="fill:none;stroke:#000000;stroke-width:15;stroke-linecap:round;stroke-linejoin:round;stroke-miterlimit:10;" d="&#10;&#9;&#9;&#9;&#9;&#9;M125.196,278.754h-24.434c-8.284,0-15-6.716-15-15V239.32c0-8.284,6.716-15,15-15h24.434c8.284,0,15,6.716,15,15v24.434&#10;&#9;&#9;&#9;&#9;&#9;C140.195,272.039,133.48,278.754,125.196,278.754z"/>
				
					<line style="fill:none;stroke:#000000;stroke-width:15;stroke-linecap:round;stroke-linejoin:round;stroke-miterlimit:10;" x1="183.201" y1="251.537" x2="321.463" y2="251.537"/>
			</g>
			<g>
				<path style="fill:none;stroke:#000000;stroke-width:15;stroke-linecap:round;stroke-linejoin:round;stroke-miterlimit:10;" d="&#10;&#9;&#9;&#9;&#9;&#9;M125.196,363.255h-24.434c-8.284,0-15-6.716-15-15v-24.434c0-8.284,6.716-15,15-15h24.434c8.284,0,15,6.716,15,15v24.434&#10;&#9;&#9;&#9;&#9;&#9;C140.195,356.539,133.48,363.255,125.196,363.255z"/>
				
					<line style="fill:none;stroke:#000000;stroke-width:15;stroke-linecap:round;stroke-linejoin:round;stroke-miterlimit:10;" x1="183.201" y1="336.038" x2="321.463" y2="336.038"/>
			</g>
			<g>
				<path style="fill:none;stroke:#000000;stroke-width:15;stroke-linecap:round;stroke-linejoin:round;stroke-miterlimit:10;" d="&#10;&#9;&#9;&#9;&#9;&#9;M125.196,447.755h-24.434c-8.284,0-15-6.716-15-15v-24.434c0-8.284,6.716-15,15-15h24.434c8.284,0,15,6.716,15,15v24.434&#10;&#9;&#9;&#9;&#9;&#9;C140.195,441.04,133.48,447.755,125.196,447.755z"/>
				
					<line style="fill:none;stroke:#000000;stroke-width:15;stroke-linecap:round;stroke-linejoin:round;stroke-miterlimit:10;" x1="183.201" y1="420.538" x2="321.463" y2="420.538"/>
			</g>
		</g>
		<g>
			
				<rect x="417.249" y="102.321" style="fill:none;stroke:#000000;stroke-width:15;stroke-linecap:round;stroke-linejoin:round;stroke-miterlimit:10;" width="63.774" height="337.111"/>
			
				<rect x="417.249" y="65.276" style="fill:none;stroke:#000000;stroke-width:15;stroke-linecap:round;stroke-linejoin:round;stroke-miterlimit:10;" width="63.774" height="37.045"/>
			<path style="fill:none;stroke:#000000;stroke-width:15;stroke-linecap:round;stroke-linejoin:round;stroke-miterlimit:10;" d="&#10;&#9;&#9;&#9;&#9;M481.022,65.276h-63.774V22.5c0-8.284,6.716-15,15-15h33.774c8.284,0,15,6.716,15,15V65.276z"/>
			
				<polygon style="fill:none;stroke:#000000;stroke-width:15;stroke-linecap:round;stroke-linejoin:round;stroke-miterlimit:10;" points="&#10;&#9;&#9;&#9;&#9;449.136,503.5 417.249,439.431 481.022,439.431 &#9;&#9;&#9;"/>
			
				<polygon style="fill:none;stroke:#000000;stroke-width:15;stroke-linecap:round;stroke-linejoin:round;stroke-miterlimit:10;" points="&#10;&#9;&#9;&#9;&#9;459.833,482.006 438.438,482.006 449.136,503.5 &#9;&#9;&#9;"/>
		</g>
	</g>
</g>















</svg>
